<svg width="120" height="15" viewBox="0 0 120 15" fill="none" xmlns="http://www.w3.org/2000/svg">
<path d="M0.46 15V0.899999H3.04L8.14 10.18H7.46L12.54 0.899999H15.08V15H12.26V5.64H12.7L8.62 12.88H6.88L2.78 5.62H3.26V15H0.46ZM17.9395 15V0.899999H27.5995V3.32H20.8995V6.62H27.1595V9.06H20.8995V12.58H27.5995V15H17.9395ZM30.0489 15V0.899999H33.1489V15H30.0489ZM35.9669 15V0.899999H38.2669L45.8469 10.56H45.3069V0.899999H48.1869V15H45.9069L38.3269 5.32H38.8469V15H35.9669ZM56.6319 15V0.899999H59.2119L64.3119 10.18H63.6319L68.7119 0.899999H71.2519V15H68.4319V5.64H68.8719L64.7919 12.88H63.0519L58.9519 5.62H59.4319V15H56.6319ZM74.1114 15V0.899999H77.2114V15H74.1114ZM80.0294 15V0.899999H82.3294L89.9094 10.56H89.3694V0.899999H92.2494V15H89.9694L82.3894 5.32H82.9094V15H80.0294ZM95.088 15V0.899999H104.748V3.32H98.048V6.62H104.308V9.06H98.048V12.58H104.748V15H95.088ZM107.197 15V0.899999H113.637C115.211 0.899999 116.424 1.28 117.277 2.04C118.131 2.8 118.557 3.86 118.557 5.22C118.557 6.1 118.364 6.86 117.977 7.5C117.591 8.14 117.031 8.63333 116.297 8.98C115.577 9.32667 114.691 9.5 113.637 9.5L113.797 9.16H114.617C115.177 9.16 115.664 9.3 116.077 9.58C116.504 9.84667 116.871 10.26 117.177 10.82L119.457 15H116.037L113.597 10.5C113.464 10.26 113.311 10.0733 113.137 9.94C112.964 9.79333 112.764 9.69333 112.537 9.64C112.324 9.57333 112.084 9.54 111.817 9.54H110.297V15H107.197ZM110.297 7.3H113.077C113.904 7.3 114.524 7.13333 114.937 6.8C115.364 6.46667 115.577 5.96667 115.577 5.3C115.577 4.64667 115.364 4.15333 114.937 3.82C114.524 3.48667 113.904 3.32 113.077 3.32H110.297V7.3Z" fill="white"/>
<path d="M0.46 15V0.899999H3.04L8.14 10.18H7.46L12.54 0.899999H15.08V15H12.26V5.64H12.7L8.62 12.88H6.88L2.78 5.62H3.26V15H0.46ZM17.9395 15V0.899999H27.5995V3.32H20.8995V6.62H27.1595V9.06H20.8995V12.58H27.5995V15H17.9395ZM30.0489 15V0.899999H33.1489V15H30.0489ZM35.9669 15V0.899999H38.2669L45.8469 10.56H45.3069V0.899999H48.1869V15H45.9069L38.3269 5.32H38.8469V15H35.9669ZM56.6319 15V0.899999H59.2119L64.3119 10.18H63.6319L68.7119 0.899999H71.2519V15H68.4319V5.64H68.8719L64.7919 12.88H63.0519L58.9519 5.62H59.4319V15H56.6319ZM74.1114 15V0.899999H77.2114V15H74.1114ZM80.0294 15V0.899999H82.3294L89.9094 10.56H89.3694V0.899999H92.2494V15H89.9694L82.3894 5.32H82.9094V15H80.0294ZM95.088 15V0.899999H104.748V3.32H98.048V6.62H104.308V9.06H98.048V12.58H104.748V15H95.088ZM107.197 15V0.899999H113.637C115.211 0.899999 116.424 1.28 117.277 2.04C118.131 2.8 118.557 3.86 118.557 5.22C118.557 6.1 118.364 6.86 117.977 7.5C117.591 8.14 117.031 8.63333 116.297 8.98C115.577 9.32667 114.691 9.5 113.637 9.5L113.797 9.16H114.617C115.177 9.16 115.664 9.3 116.077 9.58C116.504 9.84667 116.871 10.26 117.177 10.82L119.457 15H116.037L113.597 10.5C113.464 10.26 113.311 10.0733 113.137 9.94C112.964 9.79333 112.764 9.69333 112.537 9.64C112.324 9.57333 112.084 9.54 111.817 9.54H110.297V15H107.197ZM110.297 7.3H113.077C113.904 7.3 114.524 7.13333 114.937 6.8C115.364 6.46667 115.577 5.96667 115.577 5.3C115.577 4.64667 115.364 4.15333 114.937 3.82C114.524 3.48667 113.904 3.32 113.077 3.32H110.297V7.3Z" fill="url(#paint0_linear_2_902)"/>
<defs>
<linearGradient id="paint0_linear_2_902" x1="-4.18013" y1="31.6034" x2="44.6453" y2="-32.9509" gradientUnits="userSpaceOnUse">
<stop stop-color="#0D748B"/>
<stop offset="1" stop-color="#1A0B73"/>
</linearGradient>
</defs>
</svg>
